<svg id="visual" viewBox="0 0 900 600" width="900" height="600" xmlns="http://www.w3.org/2000/svg" xmlns:xlink="http://www.w3.org/1999/xlink" version="1.1"><path d="M0 36L25 41C50 46 100 56 150 62C200 68 250 70 300 63.8C350 57.7 400 43.3 450 45.3C500 47.3 550 65.7 600 65.8C650 66 700 48 750 44.2C800 40.3 850 50.7 875 55.8L900 61L900 0L875 0C850 0 800 0 750 0C700 0 650 0 600 0C550 0 500 0 450 0C400 0 350 0 300 0C250 0 200 0 150 0C100 0 50 0 25 0L0 0Z" fill="#FDF2D4" stroke-linecap="round" stroke-linejoin="miter"></path></svg>